PathFileType	4	(X/Y/Z)	./resultDataOpenSim/trcMotMarkerGrf/sub10/qtm-15-06.trc
DataRate	CameraRate	NumFrames	NumMarkers	Units	OrigDataRate	OrigDataStartFrame	OrigNumFrames
250.000000	250.000000	12	24	m	250.000000	130	518
Frame#	Time	L.Toe.Tip			R.Toe.Tip			L.Ankle.Lat			R.Ankle.Lat			L.Ankle.Med			R.Ankle.Med			L.Heel			R.Heel			L.Knee.Lat			R.Knee.Lat			L.Knee.Med			R.Knee.Med			L.Thigh.Upper			R.Thigh.Upper			L.ASIS			R.ASIS			V.Sacral			L.Acromium			R.Acromium			C7			L.Elbow			R.Elbow			L.Wrist.Lat			R.Wrist.Lat
		X1	Y1	Z1	X2	Y2	Z2	X3	Y3	Z3	X4	Y4	Z4	X5	Y5	Z5	X6	Y6	Z6	X7	Y7	Z7	X8	Y8	Z8	X9	Y9	Z9	X10	Y10	Z10	X11	Y11	Z11	X12	Y12	Z12	X13	Y13	Z13	X14	Y14	Z14	X15	Y15	Z15	X16	Y16	Z16	X17	Y17	Z17	X18	Y18	Z18	X19	Y19	Z19	X20	Y20	Z20	X21	Y21	Z21	X22	Y22	Z22	X23	Y23	Z23	X24	Y24	Z24

130	0.516	-0.16963802	0.12446712	-0.16751766	-0.80350883	0.038490419	-0.025412574	-0.29677587	0.083662244	-0.19887371	-0.94125521	0.058840883	-0.0012749179	-0.29646013	0.11723856	-0.11745725	-0.91856983	0.080340053	-0.086365729	-0.33698116	0.028612213	-0.15031537	-0.99445561	0.035155268	-0.052902134	-0.45329211	0.4440393	-0.2322482	-0.78830713	0.43433287	0.037823204	-0.44049867	0.42367474	-0.11253459	-0.76985639	0.43083327	-0.09115101	-0.58891529	0.80537418	-0.28638971	-0.69677582	0.83634357	0.087508122	-0.55438025	0.91744163	-0.2091061	-0.60144296	0.921757	0.033920818	-0.77239795	0.92818895	-0.1320278	-0.64327926	1.3834736	-0.2524383	-0.66110246	1.380312	0.074796694	-0.73824326	1.4106325	-0.093693188	-0.7688293	1.0626485	-0.30265458	-0.66422364	1.0241594	0.15012525	-0.67272417	0.83962252	-0.32760044	-0.44095423	0.90932352	0.13226379
131	0.52	-0.15698703	0.12789434	-0.16677574	-0.80345666	0.03845908	-0.025404962	-0.28323862	0.084947117	-0.1994992	-0.94110023	0.059182371	-0.0014688185	-0.28427319	0.11830453	-0.11814535	-0.9182673	0.080410261	-0.086693691	-0.3229353	0.029022028	-0.15184212	-0.99440366	0.035656169	-0.053207201	-0.44586939	0.443013	-0.23204686	-0.78500746	0.43334637	0.037490165	-0.43452637	0.42180139	-0.11231474	-0.76554497	0.42979937	-0.091128361	-0.58211897	0.80321298	-0.28618859	-0.69204567	0.8348607	0.087480563	-0.54754865	0.91535544	-0.2086456	-0.59598966	0.91999606	0.034121847	-0.76693856	0.92677046	-0.1321499	-0.63714952	1.3816676	-0.25256429	-0.65516312	1.3784389	0.074633709	-0.73261989	1.4087595	-0.094572159	-0.76442849	1.0613274	-0.30273934	-0.65667419	1.0221954	0.15018684	-0.66908225	0.83793947	-0.32792676	-0.43258805	0.90920444	0.13138486
132	0.524	-0.14487698	0.13081901	-0.1662272	-0.80340769	0.038426314	-0.025400805	-0.27039259	0.086029039	-0.20004869	-0.94089602	0.059552482	-0.001641857	-0.27261104	0.11915692	-0.11879099	-0.91793732	0.080519951	-0.087016819	-0.30961821	0.029297286	-0.1531744	-0.99435028	0.03621407	-0.053484037	-0.43822251	0.44211721	-0.23199505	-0.78161294	0.43234969	0.037153353	-0.428389	0.41994498	-0.11217611	-0.76124057	0.42874785	-0.091158715	-0.57523606	0.80099887	-0.28595462	-0.68752904	0.83333082	0.087793096	-0.54073904	0.91325008	-0.20816023	-0.59051894	0.91818551	0.034347083	-0.76154287	0.92534223	-0.13233192	-0.63109128	1.3798491	-0.25273241	-0.64921508	1.3765375	0.074445605	-0.72709496	1.4068688	-0.095789885	-0.75984882	1.059993	-0.30257042	-0.64913694	1.0202074	0.15014751	-0.66541839	0.83624908	-0.32825388	-0.42429892	0.90904891	0.13053738
133	0.528	-0.13339507	0.13312463	-0.16587952	-0.8033645	0.038391195	-0.02540013	-0.2583016	0.086818919	-0.20054616	-0.94066019	0.059980301	-0.0018224954	-0.26145932	0.11975696	-0.11938439	-0.91755314	0.080679365	-0.087318822	-0.29710791	0.029410388	-0.15421591	-0.99428305	0.036826073	-0.053773806	-0.4302735	0.44135887	-0.23206708	-0.77816355	0.43134942	0.036802679	-0.42204665	0.41813041	-0.11214213	-0.75703104	0.42763598	-0.091294173	-0.56826097	0.79873196	-0.28568707	-0.68310991	0.83175701	0.088274269	-0.53396116	0.91112313	-0.20763782	-0.58505408	0.91632589	0.034581163	-0.75614787	0.92391547	-0.13252099	-0.62514669	1.3780225	-0.2529605	-0.64326456	1.3746137	0.074229623	-0.72151846	1.4049547	-0.096914249	-0.75514119	1.0586431	-0.30223275	-0.64160793	1.0181976	0.14999034	-0.6616699	0.83455435	-0.32855316	-0.41608618	0.90885684	0.12972703
134	0.532	-0.12260254	0.13473574	-0.16578141	-0.80333358	0.038354865	-0.025404765	-0.24700055	0.087251376	-0.20104236	-0.94043636	0.060490469	-0.0020516023	-0.25084657	0.1200756	-0.11996491	-0.91711684	0.080887163	-0.08761112	-0.28546435	0.029342479	-0.15498648	-0.99417539	0.03749815	-0.054129302	-0.42202263	0.44071892	-0.23219392	-0.77465832	0.43034977	0.036446507	-0.41546074	0.41640503	-0.11220887	-0.75293563	0.42645145	-0.09153659	-0.56120427	0.79642254	-0.28538993	-0.67851556	0.83014315	0.088534194	-0.52723299	0.9089736	-0.20706988	-0.57958452	0.91443939	0.034821449	-0.7507867	0.92251032	-0.1326783	-0.61921841	1.376199	-0.25323149	-0.6373199	1.3726816	0.073981758	-0.71578722	1.4030092	-0.097652268	-0.7503682	1.0572842	-0.30182677	-0.63410297	1.0161794	0.14972844	-0.65778867	0.83286331	-0.32879022	-0.40793705	0.90862602	0.12894621
135	0.536	-0.11250251	0.13562783	-0.16598092	-0.80332074	0.038317931	-0.025422747	-0.236494	0.08730554	-0.20158045	-0.94028147	0.06107378	-0.0023731782	-0.24081968	0.12008731	-0.12058231	-0.91664333	0.081146403	-0.087917799	-0.27471652	0.029076791	-0.15561407	-0.99400761	0.038251656	-0.054589993	-0.41355359	0.44015616	-0.23229689	-0.77105134	0.42933983	0.03610375	-0.40858545	0.41482994	-0.11234822	-0.74891691	0.42520745	-0.091860401	-0.55407463	0.7940842	-0.28507191	-0.67357812	0.82849176	0.088330167	-0.52056797	0.9068052	-0.20645903	-0.57409221	0.91255166	0.035074714	-0.74549331	0.92114244	-0.1327667	-0.61321157	1.3743912	-0.25352341	-0.63138059	1.3707557	0.073692644	-0.70993154	1.4010346	-0.098060662	-0.74555955	1.0559222	-0.3014094	-0.62664999	1.0141727	0.14938946	-0.65383745	0.83117307	-0.32895163	-0.39983995	0.90835978	0.1281864
136	0.54	-0.10305098	0.13581888	-0.16647763	-0.80332853	0.038277674	-0.025464564	-0.22676514	0.086999062	-0.20218981	-0.94025235	0.061696858	-0.002814236	-0.23140943	0.11976549	-0.12126055	-0.91614507	0.081468705	-0.088261459	-0.26486284	0.028599783	-0.15625509	-0.99381016	0.039115272	-0.055147111	-0.40494699	0.43963021	-0.23232591	-0.76728688	0.42831514	0.035775686	-0.40137848	0.4134598	-0.11252506	-0.74490318	0.42392782	-0.092228428	-0.54687589	0.79172923	-0.28474525	-0.66836255	0.82680086	0.087745324	-0.51395373	0.90461661	-0.20581544	-0.56857149	0.91067394	0.035352958	-0.74016129	0.91978354	-0.13277973	-0.60711758	1.3726039	-0.25383388	-0.62544252	1.368843	0.073356158	-0.70405432	1.3990442	-0.098335555	-0.74070528	1.0545523	-0.30097489	-0.619264	1.0121895	0.14898071	-0.64995347	0.82947087	-0.3290619	-0.39179183	0.90806691	0.12744841
137	0.544	-0.094204361	0.13534863	-0.16720085	-0.80335264	0.038228954	-0.025533548	-0.217786	0.086367411	-0.20289004	-0.94033396	0.062339784	-0.0033532627	-0.22261899	0.1190856	-0.12199565	-0.91562863	0.081857017	-0.0886574	-0.25587304	0.027899056	-0.15701342	-0.99366619	0.040097956	-0.05573605	-0.39622765	0.43911189	-0.2322777	-0.76336932	0.42727473	0.035441357	-0.39381211	0.41232213	-0.1127103	-0.74080859	0.4226294	-0.09259901	-0.53961069	0.78937328	-0.28442979	-0.66303308	0.82507163	0.087001532	-0.50735603	0.90240037	-0.20515551	-0.56303048	0.90879769	0.035669583	-0.73440585	0.91830152	-0.13284242	-0.60097994	1.3708321	-0.25417454	-0.61950019	1.3669449	0.072978015	-0.6982273	1.397062	-0.098606559	-0.73577075	1.0531648	-0.30045856	-0.61194433	1.0102326	0.14849104	-0.64618682	0.82775485	-0.32917048	-0.38379626	0.90775464	0.12674219
138	0.548	-0.085948401	0.13426865	-0.1680336	-0.80338184	0.038167964	-0.025620807	-0.20952344	0.085445808	-0.2036859	-0.94034902	0.063013311	-0.0039123227	-0.21444092	0.11803384	-0.12277738	-0.9150931	0.082292716	-0.089113504	-0.24769737	0.026959289	-0.15791994	-0.99361416	0.041172466	-0.056312838	-0.38740488	0.43857992	-0.23218712	-0.75937214	0.42620132	0.03507378	-0.38587469	0.41140827	-0.1128872	-0.73655887	0.42131097	-0.09294121	-0.53229238	0.7870452	-0.28416117	-0.65770524	0.82331463	0.086254245	-0.50074788	0.9001535	-0.20450258	-0.55749204	0.9069027	0.036040544	-0.72766403	0.91645801	-0.13332494	-0.59483852	1.3690669	-0.25455078	-0.61354209	1.3650604	0.072569051	-0.69239737	1.3951224	-0.098937466	-0.73072994	1.0517582	-0.29980431	-0.60468658	1.0083004	0.14791486	-0.64245495	0.82603941	-0.32931823	-0.37585957	0.90742577	0.12608123
139	0.552	-0.078281382	0.13264192	-0.16887705	-0.80340791	0.038097568	-0.025708733	-0.2019314	0.084262586	-0.20456351	-0.94008916	0.063747628	-0.0044246841	-0.20685764	0.11662124	-0.12359466	-0.9145312	0.082747496	-0.089627084	-0.24028042	0.025772799	-0.15895556	-0.9935751	0.042302863	-0.056914382	-0.37851231	0.43802305	-0.23210393	-0.75536207	0.42507387	0.034653528	-0.37757405	0.41068353	-0.11304938	-0.7321301	0.4199537	-0.093251684	-0.52495605	0.78479723	-0.28398531	-0.65241198	0.82153533	0.085552156	-0.49411258	0.89788338	-0.20387727	-0.55198164	0.90497201	0.036481418	-0.71975309	0.91408232	-0.13473234	-0.58870843	1.3673044	-0.25495824	-0.60756202	1.3631903	0.07213609	-0.68637881	1.3932558	-0.099387415	-0.7255961	1.0503426	-0.29906437	-0.59748553	1.0063898	0.14725603	-0.63867566	0.82433829	-0.32951761	-0.36798717	0.90708127	0.12547548
140	0.556	-0.071180017	0.13053057	-0.16971418	-0.80343518	0.03803213	-0.025777947	-0.1949429	0.082841491	-0.20550107	-0.93959553	0.0645739	-0.0049164787	-0.19982322	0.1148892	-0.12442833	-0.91392927	0.083210594	-0.090178502	-0.23356846	0.024353931	-0.16008042	-0.99344818	0.043489282	-0.057588895	-0.36960244	0.43744086	-0.23206945	-0.75134414	0.42389091	0.034175709	-0.36894497	0.41010807	-0.11319632	-0.72755301	0.41853218	-0.093550961	-0.51765038	0.78270631	-0.28393502	-0.64713891	0.8197277	0.084887371	-0.48741881	0.89560688	-0.20328163	-0.54649776	0.90300363	0.036990127	-0.7113846	0.91132903	-0.13722217	-0.58258148	1.3655459	-0.25539633	-0.60156697	1.361341	0.071681038	-0.68006577	1.3914562	-0.09998693	-0.72040343	1.0489292	-0.29834575	-0.59033275	1.0044963	0.14651766	-0.63486065	0.82265108	-0.32976301	-0.36018149	0.90672183	0.12492631
141	0.56	-0.064593656	0.12798251	-0.17060778	-0.80347484	0.037988815	-0.025817789	-0.18849428	0.0812046	-0.20648119	-0.93913265	0.065507963	-0.0054659417	-0.19327405	0.11289217	-0.12525809	-0.91326566	0.083701745	-0.090735989	-0.22750995	0.022733903	-0.16125512	-0.99322508	0.044770883	-0.058319456	-0.36072585	0.436836	-0.23210387	-0.74728694	0.42266824	0.033645709	-0.36004508	0.40964852	-0.11333254	-0.72286125	0.41702993	-0.093861938	-0.5104158	0.78085549	-0.28401188	-0.64186754	0.81788791	0.084246842	-0.48062956	0.89334398	-0.20269854	-0.54100071	0.90100929	0.037538805	-0.70369542	0.90863437	-0.1402901	-0.57642809	1.3637967	-0.25586879	-0.5955665	1.359521	0.071205039	-0.67365925	1.3896738	-0.10067733	-0.71516688	1.047519	-0.29767906	-0.58322389	1.002619	0.14570344	-0.63104957	0.82096807	-0.33004248	-0.35244036	0.90634658	0.12442826
